<mxfile host="app.diagrams.net" modified="2024-06-03T09:11:47.050Z" agent="Mozilla/5.0 (Macintosh; Intel Mac OS X 10_15_7) AppleWebKit/537.36 (KHTML, like Gecko) Chrome/124.0.0.0 Safari/537.36" version="24.4.10" etag="noG4dQ1usR01U3e_aK3Y" type="github">
  <diagram name="第 1 页" id="6iknJvTpsPQkUBFDLOKZ">
    <mxGraphModel>
      <root>
        <mxCell id="0" />
        <mxCell id="1" parent="0" />
      </root>
    </mxGraphModel>
  </diagram>
</mxfile>
